# Blender v2.79 (sub 0) OBJ File: ''
# www.blender.org
mtllib FracturedCubeXTranslation.mtl
o Cube.003_Cube.004
v -1.540998 -1.000000 1.000000
v -3.540998 -1.000000 1.000000
v -3.540998 -1.000000 -1.000000
v -3.540999 1.000000 1.000000
v -3.540998 1.000000 -1.000000
v -2.852171 1.000000 1.000000
v -1.540998 -0.706905 1.000000
v -1.821080 -1.000000 -1.000000
v -3.357396 1.000000 -1.000000
v -1.540998 -1.000000 0.108741
vt 0.000000 0.000000
vt 0.000000 0.000000
vt 0.000000 0.000000
vt 0.000000 0.000000
vt 0.000000 0.000000
vt 0.000000 0.000000
vt 0.000000 0.000000
vt 0.000000 0.000000
vt 0.000000 0.000000
vt 0.000000 0.000000
vt 0.303969 0.280613
vt 0.310486 0.677257
vt 0.720730 0.732281
vt 0.788269 0.564973
vt 0.784656 0.345085
vn -0.0000 -0.0000 1.0000
vn -1.0000 0.0000 -0.0000
vn 0.0000 0.0000 -1.0000
vn 0.0000 1.0000 0.0000
vn 0.0000 -1.0000 0.0000
vn 1.0000 0.0000 0.0000
vn 0.2891 0.6978 -0.6554
vn 0.4056 0.7127 0.5723
vn 0.7449 0.3036 0.5941
vn 0.8732 -0.4480 -0.1920
vn 0.6700 -0.3959 -0.6279
usemtl Material
s off
f 1/1/1 7/2/1 6/3/1 4/4/1 2/5/1
f 2/5/2 4/4/2 5/6/2 3/7/2
f 9/8/3 8/9/3 3/7/3 5/6/3
f 6/3/4 9/8/4 5/6/4 4/4/4
f 8/9/5 10/10/5 1/1/5 2/5/5 3/7/5
f 10/10/6 7/2/6 1/1/6
s 1
f 9/11/7 6/12/8 7/13/9 10/14/10 8/15/11
o Cube.002
v 1.000000 -1.000000 -1.000000
v 1.000000 1.000000 -0.999999
v 0.999999 1.000000 1.000001
v -0.311173 1.000000 1.000000
v 1.000000 -0.706905 1.000000
v 0.719918 -1.000000 -1.000000
v -0.816398 1.000000 -1.000000
v 1.000000 -1.000000 0.108741
vt 0.000000 0.000000
vt 0.000000 0.000000
vt 0.000000 0.000000
vt 0.000000 0.000000
vt 0.000000 0.000000
vt 0.000000 0.000000
vt 0.000000 0.000000
vt 0.000000 0.000000
vt 0.303969 0.280613
vt 0.784656 0.345085
vt 0.788269 0.564973
vt 0.720730 0.732281
vt 0.310486 0.677257
vn 0.0000 -1.0000 0.0000
vn 0.0000 1.0000 0.0000
vn 1.0000 0.0000 0.0000
vn 0.0000 0.0000 -1.0000
vn -0.0000 -0.0000 1.0000
vn -0.8120 0.3487 -0.4679
vn -0.4056 -0.7127 -0.5723
vn 0.3329 -0.9067 0.2590
vn 0.3029 -0.6975 0.6494
vn -0.6700 0.3959 0.6279
usemtl Material
s off
f 11/16/12 18/17/12 16/18/12
f 12/19/13 17/20/13 14/21/13 13/22/13
f 11/16/14 12/19/14 13/22/14 15/23/14 18/17/14
f 12/19/15 11/16/15 16/18/15 17/20/15
f 14/21/16 15/23/16 13/22/16
s 1
f 17/24/17 16/25/18 18/26/19 15/27/20 14/28/21
