# Blender v2.79 (sub 0) OBJ File: 'roughfracturedcube.blend'
# www.blender.org
v -0.906672 0.845954 -0.797536
v -0.864795 0.379563 -0.268504
v -0.526459 0.645142 -0.611342
v -0.284042 0.939955 -0.930533
v -0.860357 -0.012394 0.191328
v -0.540386 0.381926 -0.096290
v -0.128658 0.693724 -0.401877
v 0.187690 0.995565 -0.647105
v -0.727281 -0.907738 0.833283
v -0.511725 -0.635077 0.549305
v -0.344604 -0.186899 0.226836
v -0.079749 0.330189 -0.105856
v 0.292247 0.741574 -0.357205
v -0.105475 -0.739673 0.768173
v 0.113936 -0.322008 0.366921
v 0.344264 0.215608 -0.077604
v 0.616570 0.653784 -0.365707
v 0.830553 0.952370 -0.533055
v 0.345994 -0.249270 0.670906
v 0.553907 0.181061 0.188057
v 0.750249 0.555158 -0.149774
v 0.919797 0.790071 -0.324211
v 0.564666 -0.191314 0.960910
v 0.780992 0.115214 0.542960
v 0.956430 0.418342 0.194175
v -1.000000 -1.000000 1.000000
v -1.000000 1.000000 0.999999
v 1.000000 1.000000 1.000000
v -0.825617 -1.000000 0.926212
v -1.000000 -1.000000 0.894364
v -1.000000 -0.832899 0.775376
v -0.673977 -1.000000 1.000000
v -0.400400 -0.912756 1.000000
v -0.314123 -0.893634 1.000000
v 0.058384 -0.609063 1.000000
v 0.154985 -0.507824 1.000000
v 0.539174 -0.218518 1.000000
v 0.631272 -0.244825 1.000000
v 1.000000 -0.307527 0.949378
v 0.966017 -0.341941 1.000000
v 1.000000 -0.361625 1.000000
v -1.000000 -0.427020 0.467521
v -1.000000 0.035244 0.101912
v -1.000000 -0.337020 0.410653
v -1.000000 0.259857 -0.160984
v -1.000000 0.464642 -0.377421
v -0.999999 0.720957 -0.665922
v 1.000000 -0.099867 0.713320
v 1.000000 0.367709 0.230893
v 1.000000 0.480269 0.121753
v 1.000000 0.718154 -0.203406
v -0.999999 0.910581 -0.831208
v -0.999999 1.000000 -0.923870
v -0.839767 1.000000 -0.981041
v -0.458074 1.000000 -0.994831
v 0.213201 1.000000 -0.640414
v 0.727513 1.000000 -0.537006
v 0.527740 1.000000 -0.505189
v 1.000000 0.920544 -0.430742
v 0.850145 1.000000 -0.562938
v 1.000000 1.000000 -0.508818
v 0.189360 1.000000 -0.649036
v -0.257813 1.000000 -0.966997
vn -0.0078 0.3590 -0.9333
vn 0.2448 -0.6978 -0.6731
vn 0.1534 -0.8075 -0.5696
vn 0.1065 -0.7183 -0.6876
vn 0.1628 -0.8006 -0.5767
vn 0.2237 -0.7494 -0.6232
vn 0.3533 0.4064 -0.8426
vn 0.3545 -0.6289 -0.6919
vn -0.0182 -0.5578 -0.8297
vn 0.0803 -0.6135 -0.7855
vn -0.0394 -0.5699 -0.8207
vn 0.3567 0.4103 -0.8393
vn 0.0045 0.5751 -0.8180
vn 0.0380 -0.5744 -0.8176
vn 0.3824 0.5412 -0.7489
vn 0.0331 -0.6882 -0.7247
vn 0.2456 -0.8365 0.4898
vn 0.2311 -0.8422 0.4871
vn 0.3825 -0.7088 -0.5926
vn 0.4458 -0.8184 -0.3626
vn 0.2027 -0.6478 -0.7343
vn -0.1402 0.5488 -0.8241
vn 0.0892 -0.5696 -0.8170
vn 0.1370 -0.5877 -0.7974
vn 0.5300 -0.5535 0.6424
vn 0.5094 -0.7172 -0.4755
vn 0.5848 -0.7533 -0.3009
vn 0.4150 -0.7149 -0.5627
vn 0.3368 -0.6944 -0.6359
vn 0.6679 0.3710 -0.6452
vn 0.7941 -0.4389 -0.4204
vn 0.1681 -0.7939 -0.5843
vn 0.1723 -0.8483 -0.5006
vn 0.1124 -0.7645 -0.6347
vn 0.8099 -0.4495 -0.3768
vn 0.8091 -0.4811 -0.3374
vn 0.6256 -0.5795 -0.5222
vn 0.6281 -0.5764 -0.5228
vn -0.2515 -0.8711 0.4218
vn 0.6295 -0.5455 -0.5533
vn 0.0000 -1.0000 0.0000
vn 0.0000 1.0000 0.0000
vn -1.0000 -0.0000 -0.0000
vn -0.0000 0.0000 1.0000
vn -0.7903 -0.4297 -0.4368
vn -0.1164 -0.7042 -0.7004
vn -0.7143 -0.5042 -0.4853
vn -0.6576 -0.5462 -0.5189
vn -0.7424 -0.3685 -0.5594
vn -0.7076 -0.5377 -0.4584
vn 1.0000 -0.0000 0.0000
vn 0.2548 -0.6945 0.6728
vn 0.1040 0.4163 -0.9032
vn -0.6565 0.3521 -0.6670
vn -0.1437 0.3309 -0.9326
vn -0.7205 -0.4471 -0.5300
vn -0.7325 -0.3815 -0.5638
vn 0.0696 -0.9164 -0.3942
vn -0.5825 -0.7049 -0.4046
vn -0.6149 -0.6004 -0.5112
vn -0.3350 -0.8329 0.4404
vn 0.3653 -0.8897 0.2736
vn 0.5221 -0.5418 0.6587
vn 0.1204 -0.7640 -0.6338
vn 0.2222 -0.8470 0.4829
s 1
f 55//1 4//2 3//3
f 3//3 6//4 2//5
f 4//2 7//6 3//3
f 63//7 8//8 4//2
f 6//4 11//9 5//10
f 7//6 12//11 6//4
f 56//12 58//13 13//14
f 8//8 62//15 56//12
f 10//16 34//17 33//18
f 10//16 15//19 14//20
f 12//11 15//19 11//9
f 13//14 16//21 12//11
f 57//22 18//23 17//24
f 15//19 36//25 14//20
f 15//19 20//26 19//27
f 16//21 21//28 20//26
f 17//24 22//29 21//28
f 61//30 59//31 18//23
f 19//27 24//32 23//33
f 20//26 25//34 24//32
f 51//35 50//36 21//28
f 22//29 59//31 51//35
f 48//37 39//38 38//39
f 24//32 49//40 48//37
f 25//34 50//36 49//40
s off
f 26//41 29//41 32//41
f 56//42 62//42 27//42
f 27//43 42//43 31//43
f 36//44 37//44 27//44
s 1
f 52//45 1//46 47//47
f 43//48 5//10 44//49
f 3//3 2//5 46//50
f 63//7 4//2 55//1
s off
f 51//51 59//51 28//51
s 1
f 19//27 37//52 36//25
f 60//53 18//23 57//22
f 1//46 53//54 54//55
f 10//16 31//56 42//57
f 31//56 29//58 30//59
f 6//4 5//10 45//60
f 40//61 39//38 41//62
f 34//17 14//20 35//63
f 11//9 10//16 44//49
f 46//50 2//5 45//60
f 9//64 32//65 29//58
f 37//52 23//33 38//39
f 3//3 1//46 55//1
f 54//55 55//1 1//46
f 3//3 7//6 6//4
f 4//2 8//8 7//6
f 63//7 62//15 8//8
f 6//4 12//11 11//9
f 7//6 13//14 12//11
f 13//14 7//6 8//8
f 8//8 56//12 13//14
f 33//18 9//64 10//16
f 10//16 14//20 34//17
f 10//16 11//9 15//19
f 12//11 16//21 15//19
f 13//14 17//24 16//21
f 17//24 13//14 58//13
f 58//13 57//22 17//24
f 35//63 14//20 36//25
f 15//19 19//27 36//25
f 15//19 16//21 20//26
f 16//21 17//24 21//28
f 17//24 18//23 22//29
f 22//29 18//23 59//31
f 60//53 61//30 18//23
f 19//27 20//26 24//32
f 20//26 21//28 25//34
f 25//34 21//28 50//36
f 22//29 51//35 21//28
f 38//39 23//33 48//37
f 24//32 48//37 23//33
f 39//38 40//61 38//39
f 24//32 25//34 49//40
s off
f 26//41 30//41 29//41
f 53//42 55//42 54//42
f 28//42 61//42 57//42
f 61//42 60//42 57//42
f 53//42 27//42 55//42
f 63//42 55//42 62//42
f 58//42 56//42 27//42
f 62//42 55//42 27//42
f 28//42 57//42 58//42
f 58//42 27//42 28//42
f 30//43 26//43 31//43
f 27//43 53//43 52//43
f 52//43 47//43 27//43
f 46//43 45//43 27//43
f 44//43 42//43 27//43
f 47//43 46//43 27//43
f 27//43 45//43 43//43
f 31//43 26//43 27//43
f 27//43 43//43 44//43
f 28//44 27//44 37//44
f 26//44 32//44 33//44
f 33//44 34//44 35//44
f 33//44 35//44 27//44
f 27//44 26//44 33//44
f 40//44 41//44 28//44
f 38//44 40//44 28//44
f 27//44 35//44 36//44
f 37//44 38//44 28//44
s 1
f 46//50 47//47 3//3
f 1//46 3//3 47//47
s off
f 28//51 41//51 39//51
f 39//51 48//51 28//51
f 50//51 51//51 28//51
f 48//51 49//51 28//51
f 59//51 61//51 28//51
f 28//51 49//51 50//51
s 1
f 19//27 23//33 37//52
f 1//46 52//45 53//54
f 10//16 9//64 31//56
f 31//56 9//64 29//58
f 43//48 45//60 5//10
f 2//5 6//4 45//60
f 42//57 44//49 10//16
f 5//10 11//9 44//49
f 9//64 33//18 32//65
