# Blender v2.79 (sub 0) OBJ File: 'roughfracturedcube.blend'
# www.blender.org
v -0.906672 0.845954 -0.797536
v -0.864795 0.379563 -0.268504
v -0.526459 0.645142 -0.611342
v -0.284042 0.939955 -0.930533
v -0.860357 -0.012394 0.191328
v -0.540386 0.381926 -0.096290
v -0.128658 0.693724 -0.401877
v 0.187690 0.995565 -0.647105
v -0.727281 -0.907738 0.833283
v -0.511725 -0.635077 0.549305
v -0.344604 -0.186899 0.226836
v -0.079749 0.330189 -0.105856
v 0.292247 0.741574 -0.357205
v -0.105475 -0.739673 0.768174
v 0.113936 -0.322008 0.366921
v 0.344264 0.215608 -0.077604
v 0.616570 0.653784 -0.365707
v 0.830553 0.952370 -0.533055
v 0.345994 -0.249270 0.670906
v 0.553907 0.181061 0.188057
v 0.750249 0.555158 -0.149774
v 0.919797 0.790071 -0.324211
v 0.564666 -0.191314 0.960910
v 0.780992 0.115214 0.542960
v 0.956430 0.418342 0.194175
v -1.000000 -1.000000 -1.000000
v 1.000000 -1.000000 -1.000000
v 1.000000 -1.000000 1.000000
v -0.999999 1.000000 -1.000001
v 1.000000 1.000000 -1.000000
v -0.825617 -1.000000 0.926212
v -1.000000 -1.000000 0.894364
v -1.000000 -0.832899 0.775376
v -0.673977 -1.000000 1.000000
v -0.400400 -0.912756 1.000000
v -0.314123 -0.893634 1.000000
v 0.058384 -0.609063 1.000000
v 0.154985 -0.507824 1.000000
v 0.539174 -0.218518 1.000000
v 0.631272 -0.244825 1.000000
v 1.000000 -0.307527 0.949378
v 0.966017 -0.341941 1.000000
v 1.000000 -0.361625 1.000000
v -1.000000 -0.427020 0.467521
v -1.000000 0.035244 0.101912
v -1.000000 -0.337020 0.410653
v -1.000000 0.259857 -0.160984
v -1.000000 0.464642 -0.377421
v -1.000000 0.720957 -0.665922
v 1.000000 -0.099867 0.713320
v 1.000000 0.367709 0.230893
v 1.000000 0.480269 0.121753
v 1.000000 0.718154 -0.203406
v -1.000000 0.910581 -0.831208
v -0.999999 1.000000 -0.923870
v -0.839767 1.000000 -0.981041
v -0.458074 1.000000 -0.994831
v 0.213201 1.000000 -0.640414
v 0.727513 1.000000 -0.537006
v 0.527740 1.000000 -0.505189
v 1.000000 0.920544 -0.430742
v 0.850145 1.000000 -0.562938
v 1.000000 1.000000 -0.508818
v 0.189360 1.000000 -0.649036
v -0.257813 1.000000 -0.966996
vn -0.1534 0.8075 0.5696
vn 0.0030 0.9337 0.3580
vn 0.1164 0.7042 0.7004
vn -0.1065 0.7183 0.6876
vn -0.1628 0.8006 0.5767
vn -0.2237 0.7494 0.6232
vn -0.2448 0.6978 0.6731
vn -0.3545 0.6289 0.6919
vn -0.1528 0.9186 0.3644
vn 0.0182 0.5578 0.8297
vn -0.0803 0.6135 0.7855
vn 0.0394 0.5699 0.8207
vn -0.0380 0.5744 0.8176
vn -0.1604 0.9120 0.3776
vn -0.2442 0.8436 0.4783
vn -0.1351 0.4603 0.8774
vn -0.4458 0.8184 0.3626
vn -0.0331 0.6882 0.7247
vn -0.3825 0.7088 0.5926
vn -0.2027 0.6478 0.7343
vn -0.1370 0.5877 0.7974
vn 0.0920 0.8359 0.5410
vn -0.0031 0.8287 0.5597
vn -0.4427 0.4624 0.7683
vn -0.5848 0.7533 0.3009
vn -0.5094 0.7172 0.4755
vn -0.4150 0.7149 0.5627
vn -0.3368 0.6944 0.6359
vn -0.0892 0.5696 0.8170
vn 0.6079 0.5734 0.5492
vn 0.5578 0.7351 0.3852
vn -0.1681 0.7939 0.5843
vn -0.1124 0.7645 0.6347
vn 0.5891 0.6615 0.4640
vn 0.5870 0.6204 0.5200
vn 0.1170 0.4052 0.9067
vn 0.7802 0.4647 0.4187
vn -0.1723 0.8483 0.5006
vn 0.7770 0.4419 0.4482
vn 0.0000 -0.0000 -1.0000
vn 1.0000 0.0000 0.0000
vn -0.6131 0.5541 0.5631
vn -0.7003 0.5143 0.4950
vn -0.7546 0.4757 0.4519
vn -0.6702 0.4083 0.6197
vn -0.7068 0.5383 0.4588
vn -0.0000 -0.0000 1.0000
vn -0.2181 0.5943 0.7741
vn -0.0459 0.9160 0.3986
vn -0.5718 0.7366 0.3611
vn 0.0498 0.9450 0.3233
vn 0.0000 1.0000 0.0000
vn -0.6941 0.4641 0.5502
vn -0.6811 0.4103 0.6064
vn -0.1588 -0.4077 0.8992
vn -0.1204 0.7640 0.6338
vn -0.7890 0.4678 0.3983
vn 0.1632 0.4057 0.8993
vn 0.6854 0.1841 0.7044
vn 0.7784 0.4650 0.4217
vn -1.0000 0.0000 0.0000
vn -0.4563 0.4735 0.7534
vn 0.0000 -1.0000 0.0000
vn -0.3514 -0.3083 0.8840
vn -0.1288 0.4692 0.8736
vn -0.6082 -0.4011 0.6850
s 1
f 3//1 57//2 1//3
f 6//4 3//1 2//5
f 7//6 4//7 3//1
f 8//8 65//9 4//7
f 11//10 6//4 5//11
f 12//12 7//6 6//4
f 13//13 58//14 8//8
f 8//8 58//14 64//15
f 36//16 14//17 10//18
f 10//18 15//19 11//10
f 15//19 12//12 11//10
f 16//20 13//13 12//12
f 17//21 59//22 60//23
f 38//24 19//25 15//19
f 15//19 20//26 16//20
f 16//20 21//27 17//21
f 17//21 22//28 18//29
f 61//30 63//31 18//29
f 19//25 24//32 20//26
f 20//26 25//33 21//27
f 52//34 53//35 21//27
f 22//28 53//35 61//30
f 40//36 50//37 23//38
f 24//32 51//39 25//33
f 25//33 51//39 52//34
s off
f 29//40 27//40 26//40
f 51//41 50//41 27//41
s 1
f 54//42 49//43 1//3
f 45//44 46//45 5//11
f 48//46 3//1 49//43
f 65//9 57//2 4//7
s off
f 37//47 36//47 28//47
s 1
f 39//48 19//25 38//24
f 62//49 59//22 18//29
f 55//50 1//3 56//51
s off
f 59//52 62//52 30//52
s 1
f 33//53 10//18 44//54
f 33//53 31//55 9//56
f 5//11 6//4 47//57
f 42//58 43//59 41//60
s off
f 48//61 49//61 26//61
s 1
f 36//16 37//62 14//17
s off
f 26//63 27//63 34//63
s 1
f 10//18 11//10 46//45
f 48//46 47//57 2//5
f 34//64 9//56 31//55
f 39//48 40//36 23//38
f 56//51 1//3 57//2
f 3//1 4//7 57//2
f 6//4 7//6 3//1
f 7//6 8//8 4//7
f 8//8 64//15 65//9
f 11//10 12//12 6//4
f 12//12 13//13 7//6
f 8//8 7//6 13//13
f 13//13 60//23 58//14
f 10//18 9//56 35//65
f 35//65 36//16 10//18
f 10//18 14//17 15//19
f 15//19 16//20 12//12
f 16//20 17//21 13//13
f 60//23 13//13 17//21
f 17//21 18//29 59//22
f 15//19 14//17 38//24
f 37//62 38//24 14//17
f 15//19 19//25 20//26
f 16//20 20//26 21//27
f 17//21 21//27 22//28
f 62//49 18//29 63//31
f 22//28 61//30 18//29
f 19//25 23//38 24//32
f 20//26 24//32 25//33
f 22//28 21//27 53//35
f 25//33 52//34 21//27
f 24//32 23//38 50//37
f 40//36 42//58 41//60
f 41//60 50//37 40//36
f 24//32 50//37 51//39
s off
f 29//40 30//40 27//40
f 28//41 41//41 43//41
f 30//41 63//41 61//41
f 53//41 52//41 27//41
f 30//41 61//41 53//41
f 28//41 27//41 50//41
f 50//41 41//41 28//41
f 52//41 51//41 27//41
f 27//41 30//41 53//41
s 1
f 1//3 49//43 3//1
f 48//46 2//5 3//1
s off
f 28//47 43//47 42//47
f 42//47 40//47 28//47
f 39//47 38//47 40//47
f 36//47 35//47 34//47
f 40//47 38//47 28//47
f 36//47 34//47 28//47
f 38//47 37//47 28//47
s 1
f 39//48 23//38 19//25
f 55//50 54//42 1//3
s off
f 29//52 55//52 56//52
f 29//52 56//52 57//52
f 62//52 63//52 30//52
f 60//52 59//52 30//52
f 65//52 64//52 30//52
f 58//52 60//52 30//52
f 30//52 29//52 57//52
f 64//52 58//52 30//52
f 30//52 57//52 65//52
s 1
f 33//53 9//56 10//18
f 33//53 32//66 31//55
f 2//5 47//57 6//4
f 45//44 5//11 47//57
s off
f 26//61 32//61 33//61
f 44//61 46//61 26//61
f 26//61 33//61 44//61
f 55//61 29//61 54//61
f 49//61 54//61 29//61
f 47//61 48//61 26//61
f 46//61 45//61 26//61
f 49//61 29//61 26//61
f 45//61 47//61 26//61
f 28//63 34//63 27//63
f 31//63 32//63 26//63
f 26//63 34//63 31//63
s 1
f 5//11 46//45 11//10
f 44//54 10//18 46//45
f 34//64 35//65 9//56
