# Blender v2.79 (sub 0) OBJ File: 'roughfracturedcube.blend'
# www.blender.org
v 1.099720 0.709912 0.531605
v 1.056979 0.299627 -0.041969
v 0.719152 0.573798 0.294547
v 0.481782 0.867232 0.618764
v 1.052954 -0.047609 -0.536445
v 0.753257 0.356397 -0.240549
v 0.351727 0.688434 0.057188
v 0.049259 1.004225 0.302361
v 0.882417 -0.861146 -1.271653
v 0.672526 -0.589843 -0.982183
v 0.526673 -0.154228 -0.633264
v 0.290997 0.360551 -0.275952
v -0.054675 0.790907 -0.018854
v 0.280303 -0.624822 -1.244518
v 0.071613 -0.219820 -0.824982
v -0.138490 0.301374 -0.351804
v -0.386134 0.742892 -0.047031
v -0.580171 1.049726 0.129463
v -0.119984 -0.093321 -1.139367
v -0.323818 0.315746 -0.636701
v -0.508458 0.680346 -0.282295
v -0.666466 0.918193 -0.101130
v -0.301383 0.015720 -1.440170
v -0.521246 0.309014 -1.014638
v -0.694329 0.599947 -0.654475
v 1.157855 -0.971187 -1.422344
v 1.384550 1.006352 -1.227533
v -0.592988 1.250091 -1.400546
v 0.978243 -0.956318 -1.364270
v 1.147565 -0.980325 -1.317609
v 1.154916 -0.825393 -1.183358
v 0.835494 -0.931454 -1.450547
v 0.574877 -0.811849 -1.465715
v 0.491738 -0.782428 -1.471316
v 0.155669 -0.455655 -1.475821
v 0.071629 -0.343780 -1.474317
v -0.275454 -0.010903 -1.479372
v -0.369499 -0.025690 -1.489901
v -0.746124 -0.047131 -1.477715
v -0.711493 -0.080920 -1.528318
v -0.747325 -0.096243 -1.533175
v 1.170934 -0.450704 -0.838591
v 1.187719 -0.025259 -0.431071
v 1.175597 -0.366634 -0.773442
v 1.187570 0.174089 -0.148537
v 1.189700 0.357851 0.086003
v 1.190651 0.586330 0.397011
v -0.745580 0.137777 -1.223441
v -0.739572 0.558368 -0.699581
v -0.737445 0.660223 -0.580407
v -0.742153 0.867308 -0.234848
v 1.196045 0.759527 0.579359
v 1.197154 0.839926 0.679942
v 1.033153 0.854507 0.722764
v 0.654403 0.899831 0.703418
v 0.025189 1.012298 0.293952
v -0.473274 1.083923 0.146934
v -0.272645 1.062329 0.132669
v -0.741357 1.047759 0.010264
v -0.597054 1.096624 0.162036
v -0.739956 1.119569 0.095415
v 0.047922 1.008647 0.304563
v 0.459103 0.926645 0.658497
vn -0.1133 -0.9888 -0.0974
vn 0.1133 0.9888 0.0974
vn 0.9888 -0.1219 0.0865
vn 0.0974 0.0865 -0.9915
vn -0.9888 0.1219 -0.0865
vn -0.0359 -0.7775 0.6278
vn 0.0943 0.2399 0.9662
vn -0.0312 0.2718 0.9618
vn -0.3806 -0.7202 0.5800
vn -0.3015 -0.8295 0.4702
vn -0.3057 -0.7957 0.5228
vn -0.3562 -0.7708 0.5282
vn -0.2691 -0.7507 0.6033
vn -0.4716 -0.6657 0.5783
vn -0.3852 0.3741 0.8436
vn -0.4476 0.3582 0.8193
vn -0.2416 -0.6689 0.7030
vn -0.1119 -0.6380 0.7619
vn -0.1171 -0.6472 0.7533
vn -0.1689 -0.6371 0.7520
vn -0.3172 0.3461 0.8829
vn -0.0363 0.1975 0.9796
vn -0.2460 -0.7833 0.5708
vn -0.1764 -0.7351 0.6546
vn -0.5673 -0.7775 0.2712
vn -0.3186 -0.7432 -0.5883
vn -0.2474 -0.8012 -0.5448
vn -0.5122 -0.7047 0.4908
vn -0.3760 -0.6735 0.6364
vn -0.2938 -0.6330 0.7163
vn 0.1128 0.4330 0.8943
vn -0.2367 -0.6419 0.7293
vn -0.7105 -0.6753 0.1978
vn -0.5585 -0.4692 -0.6840
vn -0.5311 -0.4432 -0.7221
vn -0.6402 -0.6875 0.3427
vn -0.5500 -0.7074 0.4440
vn -0.4796 -0.7070 0.5198
vn -0.1563 0.3139 0.9365
vn -0.6885 0.3822 0.6164
vn -0.8757 -0.3678 0.3127
vn -0.3130 -0.8133 0.4904
vn -0.3217 -0.8427 0.4317
vn -0.2727 -0.7904 0.5485
vn -0.8896 -0.3891 0.2391
vn -0.8732 -0.4123 0.2598
vn -0.7346 -0.5422 0.4079
vn -0.7098 -0.5607 0.4262
vn 0.2815 -0.8997 -0.3336
vn 0.1925 -0.8570 -0.4779
vn -0.7461 -0.5102 0.4278
vn 0.6742 -0.5703 0.4693
vn 0.5990 -0.6401 0.4811
vn 0.4433 -0.7058 0.5526
vn 0.6097 -0.5190 0.5990
vn 0.5891 -0.6506 0.4792
vn -0.4255 -0.8217 -0.3792
vn 0.6241 0.2104 0.7525
vn 0.6274 -0.5265 0.5737
vn 0.6082 -0.5744 0.5478
vn -0.2156 -0.9301 0.2973
vn 0.4825 -0.8040 0.3475
vn 0.4916 -0.7058 0.5101
vn -0.4354 -0.8115 -0.3895
vn -0.2687 -0.7686 -0.5805
s off
f 26//1 30//1 29//1 32//1
f 27//2 28//2 61//2 60//2 57//2 58//2 56//2 62//2 63//2 55//2 54//2 53//2
f 26//3 27//3 53//3 52//3 47//3 46//3 45//3 43//3 44//3 42//3 31//3 30//3
f 27//4 26//4 32//4 33//4 34//4 35//4 36//4 37//4 38//4 40//4 41//4 28//4
f 41//5 39//5 48//5 49//5 50//5 51//5 59//5 61//5 28//5
s 1
f 1//6 54//7 55//8 4//9 3//10
f 2//11 3//10 7//12 6//13
f 3//10 4//9 8//14 7//12
f 4//9 63//15 62//16 8//14
f 5//17 6//13 12//18 11//19
f 6//13 7//12 13//20 12//18
f 7//12 8//14 56//21 58//22 13//20
f 8//14 62//16 56//21
f 9//23 10//24 14//25 34//26 33//27
f 10//24 11//19 15//28 14//25
f 11//19 12//18 16//29 15//28
f 12//18 13//20 17//30 16//29
f 13//20 58//22 57//31 18//32 17//30
f 14//25 15//28 19//33 36//34 35//35
f 15//28 16//29 20//36 19//33
f 16//29 17//30 21//37 20//36
f 17//30 18//32 22//38 21//37
f 18//32 60//39 61//40 59//41 22//38
f 19//33 20//36 24//42 23//43
f 20//36 21//37 25//44 24//42
f 21//37 22//38 51//45 50//46 25//44
f 22//38 59//41 51//45
f 23//43 24//42 48//47 39//48 40//49 38//50
f 24//42 25//44 49//51 48//47
f 25//44 50//46 49//51
f 52//52 1//6 47//53
f 43//54 5//17 44//55
f 47//53 1//6 3//10 2//11 46//56
f 63//15 4//9 55//8
f 36//34 19//33 23//43 37//57
f 60//39 18//32 57//31
f 54//7 1//6 52//52 53//58
f 42//59 10//24 9//23 31//60
f 31//60 9//23 29//61 30//62
f 45//63 2//11 6//13 5//17 43//54
f 40//49 39//48 41//64
f 34//26 14//25 35//35
f 44//55 5//17 11//19 10//24 42//59
f 46//56 2//11 45//63
f 29//61 9//23 33//27 32//65
f 37//57 23//43 38//50
