# Blender v2.79 (sub 0) OBJ File: ''
# www.blender.org
# Translation 0, 0, 0
# Rotation XYZ Euler +90 +45 -30
v -1.724745 -0.000000 0.158919
v -0.500000 -1.414214 0.866025
v 0.724745 0.000000 1.573132
v -0.500001 1.414214 0.866025
v -0.724745 -0.000001 -1.573132
v 0.500001 -1.414213 -0.866025
v 1.724745 0.000000 -0.158919
v 0.500000 1.414213 -0.866025
vn -0.5000 0.0000 0.8660
vn 0.5000 -0.0000 -0.8660
vn -0.6124 -0.7071 -0.3536
vn 0.6124 -0.7071 0.3536
vn 0.6124 0.7071 0.3536
vn -0.6124 0.7071 -0.3536
vt -1.000000 -1.000000 1.000000
vt -1.000000 -1.000000 -1.000000
vt 1.000000 -1.000000 -1.000000
vt 1.000000 -1.000000 1.000000
vt -1.000000 1.000000 0.999999
vt -0.999999 1.000000 -1.000001
vt 1.000000 1.000000 -1.000000
vt 1.000000 1.000000 1.000000
s off
f 2//1 4//1 1//1
f 8//2 6//2 5//2
f 5//3 2//3 1//3
f 6//4 3//4 2//4
f 7//5 4//5 3//5
f 1//6 8//6 5//6
f 2//1 3//1 4//1
f 8//2 7//2 6//2
f 5//3 6//3 2//3
f 6//4 7//4 3//4
f 7//5 8//5 4//5
f 1//6 4//6 8//6
