# Blender v2.79 (sub 0) OBJ File: ''
# www.blender.org
o Cube
v 1.724745 0.158919 -0.000000
v 0.500000 0.866025 -1.414214
v -0.724745 1.573132 0.000000
v 0.500001 0.866025 1.414214
v 0.724745 -1.573132 -0.000001
v -0.500001 -0.866025 -1.414213
v -1.724745 -0.158919 0.000000
v -0.500000 -0.866025 1.414213
vn 0.5000 0.8660 0.0000
vn -0.5000 -0.8660 -0.0000
vn 0.6124 -0.3536 -0.7071
vn -0.6124 0.3536 -0.7071
vn -0.6124 0.3536 0.7071
vn 0.6124 -0.3536 0.7071
vt 1.000000 1.000000 -1.000000
vt 1.000000 -1.000000 -1.000000
vt -1.000000 -1.000000 -1.000000
vt -1.000000 1.000000 -1.000000
vt 1.000000 0.999999 1.000000
vt 0.999999 -1.000001 1.000000
vt -1.000000 -1.000000 1.000000
vt -1.000000 1.000000 1.000000
s off
f 2/2/1 4/2/1 1/2/1
f 8/8/2 6/8/2 5/8/2
f 5/5/3 2/5/3 1/5/3
f 6/6/4 3/6/4 2/6/4
f 7/7/5 4/7/5 3/7/5
f 1/1/6 8/1/6 5/1/6
f 2/2/1 3/2/1 4/2/1
f 8/8/2 7/8/2 6/8/2
f 5/5/3 6/5/3 2/5/3
f 6/6/4 7/6/4 3/6/4
f 7/7/5 8/7/5 4/7/5
f 1/1/6 4/1/6 8/1/6
