# Blender v2.79 (sub 0) OBJ File: ''
# www.blender.org
o Cube
v 2.224745 0.858919 -0.900000
v 1.000000 1.566025 -2.314214
v -0.224745 2.273132 -0.900000
v 1.000000 1.566025 0.514214
v 1.224745 -0.873132 -0.900001
v -0.000001 -0.166025 -2.314213
v -1.224745 0.541081 -0.900000
v 0.000000 -0.166025 0.514213
vn 0.5000 0.8660 0.0000
vn -0.5000 -0.8660 -0.0000
vn 0.6124 -0.3536 -0.7071
vn -0.6124 0.3536 -0.7071
vn -0.6124 0.3536 0.7071
vn 0.6124 -0.3536 0.7071
vt 1.000000 1.000000 -1.000000
vt 1.000000 -1.000000 -1.000000
vt -1.000000 -1.000000 -1.000000
vt -1.000000 1.000000 -1.000000
vt 1.000000 0.999999 1.000000
vt 0.999999 -1.000001 1.000000
vt -1.000000 -1.000000 1.000000
vt -1.000000 1.000000 1.000000
s off
f 2/2/1 4/4/1 1/1/1
f 8/8/2 6/6/2 5/5/2
f 1/1/3 6/6/3 2/2/3
f 6/6/4 3/3/4 2/2/4
f 7/7/5 4/4/5 3/3/5
f 1/1/6 8/8/6 5/5/6
f 2/2/1 3/3/1 4/4/1
f 8/8/2 7/7/2 6/6/2
f 1/1/3 5/5/3 6/6/3
f 6/6/4 7/7/4 3/3/4
f 7/7/5 8/8/5 4/4/5
f 1/1/6 4/4/6 8/8/6
