# Blender v2.79 (sub 0) OBJ File: ''
# www.blender.org
# Translation +0.5, +0.7, -0.9
# Rotation XYZ Euler +90 +45 -30
v -2.224745 -0.900000 0.858919
v -1.000000 -2.314214 1.566025
v 0.224745 -0.900000 2.273132
v -1.000000 0.514214 1.566025
v -1.224745 -0.900001 -0.873132
v 0.000001 -2.314213 -0.166025
v 1.224745 -0.900000 0.541081
v 0.000000 0.514213 -0.166025
vn -0.5000 0.0000 0.8660
vn 0.5000 -0.0000 -0.8660
vn -0.6124 -0.7071 -0.3536
vn 0.6124 -0.7071 0.3536
vn 0.6124 0.7071 0.3536
vn -0.6124 0.7071 -0.3536
vt -1.000000 -1.000000 1.000000
vt -1.000000 -1.000000 -1.000000
vt 1.000000 -1.000000 -1.000000
vt 1.000000 -1.000000 1.000000
vt -1.000000 1.000000 0.999999
vt -0.999999 1.000000 -1.000001
vt 1.000000 1.000000 -1.000000
vt 1.000000 1.000000 1.000000
s off
f 2/2/1 4/4/1 1/1/1
f 8/8/2 6/6/2 5/5/2
f 5/5/3 2/2/3 1/1/3
f 6/6/4 3/3/4 2/2/4
f 3/3/5 8/8/5 4/4/5
f 1/1/6 8/8/6 5/5/6
f 2/2/1 3/3/1 4/4/1
f 8/8/2 7/7/2 6/6/2
f 5/5/3 6/6/3 2/2/3
f 6/6/4 7/7/4 3/3/4
f 3/3/5 7/7/5 8/8/5
f 1/1/6 4/4/6 8/8/6


