<?xml version="1.0" encoding="utf-8"?>
<!-- Generator: Adobe Illustrator 21.1.0, SVG Export Plug-In . SVG Version: 6.00 Build 0)  -->
<svg version="1.1" id="Capa_1" xmlns="http://www.w3.org/2000/svg" xmlns:xlink="http://www.w3.org/1999/xlink" x="0px" y="0px"
	 viewBox="0 0 475.1 475.1" style="enable-background:new 0 0 475.1 475.1;" xml:space="preserve">
<style type="text/css">
	.st0{fill:#666666;}
	.st1{fill:#666666;stroke:#000000;stroke-width:20;stroke-miterlimit:10;}
	.st2{fill:#CCCCCC;}
</style>
<path class="st0" d="M-1054,128.5c-12.6-12.6-27.6-18.8-45.1-18.8H-1291v-9.1c0-17.5-6.3-32.5-18.8-45.1
	c-12.6-12.6-27.6-18.8-45.1-18.8h-91.4c-17.5,0-32.6,6.3-45.1,18.8c-12.6,12.6-18.8,27.6-18.8,45.1v274.1c0,17.5,6.3,32.5,18.8,45.1
	c12.6,12.6,27.6,18.8,45.1,18.8h347.2c17.5,0,32.6-6.3,45.1-18.8c12.6-12.6,18.8-27.6,18.8-45.1v-201
	C-1035.2,156.1-1041.5,141-1054,128.5z M-1071.7,374.6c0,7.6-2.7,14.1-8,19.4c-5.3,5.3-11.8,8-19.4,8h-347.2c-7.6,0-14.1-2.7-19.4-8
	c-5.3-5.3-8-11.8-8-19.4V100.5c0-7.6,2.7-14.1,8-19.4c5.3-5.3,11.8-8,19.4-8h91.4c7.6,0,14.1,2.7,19.4,8c5.3,5.3,8,11.8,8,19.4v18.3
	c0,7.6,2.7,14.1,8,19.4c5.3,5.3,11.8,8,19.4,8h201c7.6,0,14.1,2.7,19.4,8c5.3,5.3,8,11.8,8,19.4V374.6L-1071.7,374.6z"/>
<path d="M-47.2,128.5c-12.6-12.6-27.6-18.8-45.1-18.8h-191.9v-9.1c0-17.5-6.3-32.5-18.8-45.1c-12.6-12.6-27.6-18.8-45.1-18.8h-91.4
	c-17.5,0-32.6,6.3-45.1,18.8c-12.6,12.6-18.8,27.6-18.8,45.1v274.1c0,17.5,6.3,32.5,18.8,45.1c12.6,12.6,27.6,18.8,45.1,18.8h347.2
	c17.5,0,32.6-6.3,45.1-18.8c12.6-12.6,18.8-27.6,18.8-45.1v-201C-28.3,156.1-34.6,141-47.2,128.5z M-64.9,374.6
	c0,7.6-2.7,14.1-8,19.4c-5.3,5.3-11.8,8-19.4,8h-347.2c-7.6,0-14.1-2.7-19.4-8c-5.3-5.3-8-11.8-8-19.4V100.5c0-7.6,2.7-14.1,8-19.4
	c5.3-5.3,11.8-8,19.4-8h91.4c7.6,0,14.1,2.7,19.4,8c5.3,5.3,8,11.8,8,19.4v18.3c0,7.6,2.7,14.1,8,19.4c5.3,5.3,11.8,8,19.4,8h201
	c7.6,0,14.1,2.7,19.4,8c5.3,5.3,8,11.8,8,19.4L-64.9,374.6L-64.9,374.6z"/>
<path class="st1" d="M-559.8,133.3c-12-12-26.4-18-43.2-18h-183.8v-8.7c0-16.7-6-31.1-18-43.1c-12-12-26.4-18-43.2-18h-87.5
	c-16.8,0-31.2,6-43.2,18c-12,12-18,26.4-18,43.1v262c0,16.7,6,31.1,18,43.1c12,12,26.4,18,43.2,18H-603c16.8,0,31.2-6,43.2-18
	c12-12,18-26.4,18-43.1V176.4C-541.8,159.7-547.8,145.3-559.8,133.3z M-576.8,368.5c0,7.3-2.5,13.5-7.7,18.6
	c-5.1,5.1-11.3,7.6-18.6,7.6h-332.6c-7.3,0-13.5-2.5-18.6-7.6c-5.1-5.1-7.7-11.3-7.7-18.6v-262c0-7.3,2.6-13.5,7.7-18.6
	c5.1-5.1,11.3-7.6,18.6-7.6h87.5c7.3,0,13.5,2.5,18.6,7.6c5.1,5.1,7.7,11.3,7.7,18.6V124c0,7.3,2.6,13.5,7.7,18.6
	c5.1,5.1,11.3,7.6,18.6,7.6H-603c7.3,0,13.5,2.5,18.6,7.6c5.1,5.1,7.7,11.3,7.7,18.6L-576.8,368.5L-576.8,368.5z"/>
<path class="st2" d="M456.2,128.5c-12.6-12.6-27.6-18.8-45.1-18.8H219.3v-9.1c0-17.5-6.3-32.5-18.8-45.1
	c-12.6-12.6-27.6-18.8-45.1-18.8H64c-17.5,0-32.6,6.3-45.1,18.8C6.3,67.9,0,83,0,100.5v274.1c0,17.5,6.3,32.5,18.8,45.1
	c12.6,12.6,27.6,18.8,45.1,18.8h347.2c17.5,0,32.6-6.3,45.1-18.8c12.6-12.6,18.8-27.6,18.8-45.1v-201
	C475.1,156.1,468.8,141,456.2,128.5z M438.5,374.6c0,7.6-2.7,14.1-8,19.4c-5.3,5.3-11.8,8-19.4,8H64c-7.6,0-14.1-2.7-19.4-8
	c-5.3-5.3-8-11.8-8-19.4V100.5c0-7.6,2.7-14.1,8-19.4c5.3-5.3,11.8-8,19.4-8h91.4c7.6,0,14.1,2.7,19.4,8c5.3,5.3,8,11.8,8,19.4v18.3
	c0,7.6,2.7,14.1,8,19.4c5.3,5.3,11.8,8,19.4,8h201c7.6,0,14.1,2.7,19.4,8c5.3,5.3,8,11.8,8,19.4L438.5,374.6L438.5,374.6z"/>
</svg>
