# Blender v2.79 (sub 0) OBJ File: ''
# www.blender.org
mtllib cube.mtl
o Cube
v -1.000000 -1.000000 1.000000
v -1.000000 -1.000000 -1.000000
v 1.000000 -1.000000 -1.000000
v 1.000000 -1.000000 1.000000
v -1.000000 1.000000 0.999999
v -0.999999 1.000000 -1.000001
v 1.000000 1.000000 -1.000000
v 1.000000 1.000000 1.000000
vt 0.0 0.5 +0.6
vt 0.2 0.4 +0.8
vt 0.4 0.3 +0.6
vt 0.6 0.2 +0.3
vt 0.8 0.1 +0.7
vt 1.0 0.2 -0.8
vt 0.8 0.3 -0.3
vt 0.6 0.4 -0.4
vn 0.0000 -1.0000 0.0000
vn 0.0000 1.0000 -0.0000
vn -1.0000 -0.0000 0.0000
vn 0.0000 -0.0000 -1.0000
vn 1.0000 -0.0000 0.0000
vn -0.0000 0.0000 1.0000
usemtl Material
s off
g somegroup
f 2/2/1 4/4/1 1/1/1
f 8/8/2 6/6/2 5/5/2
f 5/5/3 2/2/3 1/1/3
f 6/6/4 3/3/4 2/2/4
f 3/3/5 8/8/5 4/4/5
f 1/1/6 8/8/6 5/5/6
g someothergroup
f 2/2/1 3/2/1 4/2/1
f 8/8/2 7/8/2 6/8/2
f 5/5/3 6/5/3 2/5/3
f 6/6/4 7/6/4 3/6/4
f 3/3/5 7/3/5 8/3/5
f 1/1/6 4/1/6 8/1/6
