# Blender v2.79 (sub 0) OBJ File: 'fracturedCube.blend'
# www.blender.org
mtllib fracturedCube.mtl
v -0.386028 4.443867 -2.885411
v 1.613972 4.443867 -0.885411
v 1.613972 4.443867 -2.885411
v -0.386028 3.906410 -2.885411
v -0.205644 4.443867 -0.885411
v -0.386028 4.443867 -1.230409
v 1.613972 2.664204 -2.885411
v 1.613972 3.313698 -0.885411
v -3.049761 1.487800 0.868053
v -3.049761 3.487800 0.868053
v -3.049761 1.487800 -1.131947
v -1.049761 1.487800 0.868053
v -1.049761 1.487800 -1.131947
v -3.049761 2.950343 -1.131947
v -2.869377 3.487800 0.868053
v -3.049761 3.487800 0.523055
v -1.049761 1.708138 -1.131947
v -1.049761 2.357632 0.868053
vt 0.000000 0.000000
vt 0.000000 0.000000
vt 0.000000 0.000000
vt 0.000000 0.000000
vt 0.000000 0.000000
vt 0.000000 0.000000
vt 0.000000 0.000000
vt 0.000000 0.000000
vt 0.824927 0.573684
vt 0.671061 0.276525
vt 0.240446 0.416404
vt 0.426386 0.775508
vt 0.818163 0.648245
vt 0.000000 0.000000
vt 0.000000 0.000000
vt 0.000000 0.000000
vt 0.000000 0.000000
vt 0.000000 0.000000
vt 0.000000 0.000000
vt 0.000000 0.000000
vt 0.000000 0.000000
vt 0.000000 0.000000
vt 0.000000 0.000000
vt 0.824927 0.573684
vt 0.818163 0.648245
vt 0.426386 0.775508
vt 0.240446 0.416404
vt 0.671061 0.276525
vn 0.0000 1.0000 -0.0000
vn 0.0000 0.0000 1.0000
vn 0.0000 0.0000 -1.0000
vn 1.0000 0.0000 0.0000
vn -1.0000 0.0000 0.0000
vn -0.8792 0.2993 0.3707
vn -0.6989 -0.4641 -0.5441
vn 0.3797 -0.8085 -0.4496
vn 0.4396 -0.6227 0.6472
vn -0.6530 0.2827 0.7026
vn -1.0000 0.0000 0.0000
vn 0.0000 0.0000 -1.0000
vn 1.0000 0.0000 0.0000
vn 0.0000 0.0000 1.0000
vn 0.0000 -1.0000 0.0000
vn 0.0000 1.0000 0.0000
vn -0.4933 0.8410 -0.2223
vn 0.2832 0.7631 0.5809
vn 0.6989 0.4641 0.5441
vn 0.6866 0.3042 -0.6603
vn -0.4396 0.6227 -0.6472
s off
f 9/14/11 10/15/11 16/16/11 14/17/11 11/18/11
f 11/18/12 14/17/12 17/19/12 13/20/12
f 13/20/13 17/19/13 18/21/13 12/22/13
f 12/22/14 18/21/14 15/23/14 10/15/14 9/14/14
f 11/18/15 13/20/15 12/22/15 9/14/15
f 15/23/16 16/16/16 10/15/16
s 1
f 16/24/17 15/25/18 18/26/19 17/27/20 14/28/21
